<?xml version="1.0" encoding="UTF-8" standalone="no"?>
<!DOCTYPE svg PUBLIC "-//W3C//DTD SVG 1.1//EN" "http://www.w3.org/Graphics/SVG/1.1/DTD/svg11.dtd">
<svg version="1.1" xmlns="http://www.w3.org/2000/svg" xmlns:xlink="http://www.w3.org/1999/xlink" preserveAspectRatio="xMidYMid meet" viewBox="0 0 640 640" width="640" height="640"><defs><path d="M39.65 161.26L334.85 207.28L296.9 456.28L1.7 410.26L39.65 161.26Z" id="a5zG9MMjT"></path><path d="M635.55 270.2C655.16 349.26 601.22 431.18 515.17 453.01C429.12 474.85 343.33 428.39 323.72 349.33C304.11 270.27 358.05 188.35 444.1 166.52C530.15 144.68 615.94 191.14 635.55 270.2Z" id="d3pHsSohsW"></path><path d="M57.68 401.15L40.28 467.16L131.65 425.35L57.68 401.15Z" id="dISjkKMNW"></path><path d="M605.5 379.98L627.25 445.99L557.63 430.59L605.5 379.98Z" id="a1acfB6lmI"></path><path d="M279.59 304.95L222 302.67L238.45 266.22L304.27 285.35L279.59 304.95Z" id="a2uPyCbAXm"></path><path d="M387.44 308.64L392.05 281.4L410.27 259.64L335.11 294.39L387.44 308.64Z" id="haWBIq3fP"></path></defs><g><g><g><use xlink:href="#a5zG9MMjT" opacity="1" fill="#00a8ff" fill-opacity="1"></use></g><g><use xlink:href="#d3pHsSohsW" opacity="1" fill="#ff8c00" fill-opacity="1"></use></g><g><use xlink:href="#dISjkKMNW" opacity="1" fill="#00a8ff" fill-opacity="1"></use></g><g><use xlink:href="#a1acfB6lmI" opacity="1" fill="#ff8c00" fill-opacity="1"></use></g><g><use xlink:href="#a2uPyCbAXm" opacity="1" fill="#ffffff" fill-opacity="1"></use></g><g><use xlink:href="#haWBIq3fP" opacity="1" fill="#ffffff" fill-opacity="1"></use></g></g></g></svg>